<svg width="52" height="49" viewBox="0 0 52 49" fill="none" xmlns="http://www.w3.org/2000/svg">
<path d="M40.3453 10.4838C36.3187 12.6745 32.8957 15.8745 29.0112 18.3036C25.2027 20.6819 21.6529 23.5522 18.1994 26.382C11.1961 32.1073 4.80132 38.8317 0.485744 46.8138C-0.0873005 47.8736 1.31235 49.0248 2.18459 48.1221C8.35115 41.6969 14.6851 35.4442 21.1255 29.308C24.2595 26.3126 27.4374 23.3561 30.6593 20.4385C34.0671 17.3603 37.977 14.8602 41.3392 11.7719C42.039 11.1228 41.1414 10.0477 40.3453 10.4838Z" fill="white"/>
<path d="M50.9957 2.31427C50.9912 2.10716 50.9402 1.90372 50.8463 1.71905C50.7525 1.53437 50.6182 1.37321 50.4536 1.24752C50.2889 1.12183 50.098 1.03484 49.8951 0.993012C49.6923 0.951183 49.4826 0.955589 49.2816 1.0059C45.0725 1.6753 40.7722 1.98464 36.7 3.29808C36.4559 3.36533 36.2485 3.52679 36.1234 3.74696C35.9984 3.96712 35.9659 4.22795 36.0331 4.47206C36.1004 4.71617 36.2618 4.92357 36.482 5.04863C36.7022 5.17369 36.963 5.20617 37.2071 5.13892C40.8736 4.36303 44.5806 4.26668 48.2775 3.84577C48.2775 5.23527 48.2775 6.62985 48.2065 8.02443C48.1406 9.92612 47.7501 11.843 47.9682 13.7346C48.0747 14.6271 49.4337 15.3168 49.9003 14.2417C51.4825 10.702 50.9957 6.1278 50.9957 2.31427Z" fill="white"/>
</svg>
