<svg width="19" height="18" viewBox="0 0 19 18" fill="none" xmlns="http://www.w3.org/2000/svg">
<path d="M8.79661 0.90088C9.03823 0.247916 9.96177 0.247916 10.2034 0.900879L12.0812 5.97566C12.1572 6.18095 12.319 6.34281 12.5243 6.41877L17.5991 8.29661C18.2521 8.53823 18.2521 9.46177 17.5991 9.70339L12.5243 11.5812C12.319 11.6572 12.1572 11.819 12.0812 12.0243L10.2034 17.0991C9.96177 17.7521 9.03823 17.7521 8.79661 17.0991L6.91877 12.0243C6.84281 11.819 6.68095 11.6572 6.47566 11.5812L1.40088 9.70339C0.747916 9.46177 0.747916 8.53823 1.40088 8.29661L6.47566 6.41877C6.68095 6.34281 6.84281 6.18095 6.91877 5.97566L8.79661 0.90088Z" fill="#181818"/>
</svg>
