<svg width="24" height="26" viewBox="0 0 24 26" fill="none" xmlns="http://www.w3.org/2000/svg">
<circle cx="12.0007" cy="3.92064" r="3.63158" fill="#181818"/>
<circle cx="12.0007" cy="12.9988" r="3.63158" fill="#181818"/>
<circle cx="4.13158" cy="8.76439" r="3.63158" fill="#181818"/>
<circle cx="4.13158" cy="17.237" r="3.63158" fill="#181818"/>
<circle cx="19.8679" cy="8.76439" r="3.63158" fill="#181818"/>
<circle cx="12.0007" cy="22.0769" r="3.63158" fill="#181818"/>
<path d="M18.8429 18.5991V15.8073H20.1821C20.3233 15.8073 20.4595 15.8414 20.5906 15.9095C20.7243 15.975 20.834 16.0734 20.9198 16.2045C21.008 16.3331 21.0522 16.492 21.0522 16.6812C21.0522 16.8703 21.0068 17.0342 20.916 17.1729C20.8277 17.3091 20.7142 17.4138 20.5755 17.4869C20.4393 17.5601 20.2981 17.5966 20.1518 17.5966H19.1153V17.2146H20.0232C20.1518 17.2146 20.2666 17.1692 20.3675 17.0784C20.4709 16.9851 20.5226 16.8527 20.5226 16.6812C20.5226 16.5046 20.4709 16.3785 20.3675 16.3029C20.2666 16.2272 20.1556 16.1894 20.0346 16.1894H19.3309V18.5991H18.8429ZM20.4696 17.3016L21.1656 18.5991H20.6209L19.9438 17.3016H20.4696ZM19.8681 20.2636C19.4495 20.2636 19.0573 20.1854 18.6916 20.029C18.326 19.8727 18.0044 19.6558 17.727 19.3784C17.4496 19.101 17.2327 18.7794 17.0763 18.4137C16.92 18.0481 16.8418 17.6559 16.8418 17.2373C16.8418 16.8186 16.92 16.4265 17.0763 16.0608C17.2327 15.6951 17.4496 15.3735 17.727 15.0961C18.0044 14.8187 18.326 14.6018 18.6916 14.4455C19.0573 14.2891 19.4495 14.2109 19.8681 14.2109C20.2868 14.2109 20.6789 14.2891 21.0446 14.4455C21.4103 14.6018 21.7318 14.8187 22.0092 15.0961C22.2866 15.3735 22.5035 15.6951 22.6599 16.0608C22.8162 16.4265 22.8944 16.8186 22.8944 17.2373C22.8944 17.6559 22.8162 18.0481 22.6599 18.4137C22.5035 18.7794 22.2866 19.101 22.0092 19.3784C21.7318 19.6558 21.4103 19.8727 21.0446 20.029C20.6789 20.1854 20.2868 20.2636 19.8681 20.2636ZM19.8681 19.6999C20.3221 19.6999 20.7344 19.589 21.1051 19.367C21.4784 19.1451 21.776 18.8488 21.9979 18.478C22.2198 18.1048 22.3308 17.6912 22.3308 17.2373C22.3308 16.7833 22.2198 16.371 21.9979 16.0002C21.776 15.627 21.4784 15.3294 21.1051 15.1075C20.7344 14.8856 20.3221 14.7746 19.8681 14.7746C19.4142 14.7746 19.0006 14.8856 18.6273 15.1075C18.2566 15.3294 17.9603 15.627 17.7383 16.0002C17.5164 16.371 17.4054 16.7833 17.4054 17.2373C17.4054 17.6912 17.5164 18.1048 17.7383 18.478C17.9603 18.8488 18.2566 19.1451 18.6273 19.367C19.0006 19.589 19.4142 19.6999 19.8681 19.6999Z" fill="#181818"/>
</svg>
